External Loads File
version=1
nRows=38
nColumns=13
Range=5.000000e-03-10 seconds
endheader
time 	forceRightX 	forceRightY 	forceRightZ 	pointRightX 	pointRightY 	pointRightZ 	forceLeftX 	forceLeftY 	forceLeftZ 	pointLeftX 	pointLeftY 	pointLeftZ 		
2.505000 139.797861 257.683271 -0.000000 0.239478 0.164693 -0.114223 -90.318060 48.415643 -0.000000 0.343867 0.496269 -0.365104
2.510000 129.619008 191.596480 -0.000000 0.231391 0.168268 -0.114035 -96.651105 58.591381 -0.000000 0.350811 0.493502 -0.365221
2.515000 122.964975 134.032330 -0.000000 0.223262 0.172253 -0.113925 -102.566553 70.695810 -0.000000 0.357389 0.490157 -0.365289
2.520000 119.384334 83.674260 -0.000000 0.215212 0.176860 -0.113866 -107.861949 85.525854 -0.000000 0.363700 0.486386 -0.365281
2.525000 118.147682 39.039187 -0.000000 0.206991 0.182029 -0.113803 -112.332137 103.878447 -0.000000 0.369688 0.482083 -0.365272
2.530000 118.228775 -0.900657 -0.000000 0.199156 0.187781 -0.113950 -116.127662 126.180067 -0.000000 0.375414 0.477655 -0.365438
2.535000 118.628508 -37.066986 -0.000000 0.191466 0.194044 -0.114073 -119.240087 153.061379 -0.000000 0.380570 0.472270 -0.364663
2.540000 118.203415 -69.684223 -0.000000 0.184186 0.200642 -0.114011 -121.730860 184.947720 -0.000000 0.385596 0.466035 -0.364771
2.545000 116.106323 -98.165143 -0.000000 0.177325 0.207542 -0.113874 -123.960287 221.874302 -0.000000 0.390238 0.459470 -0.365003
2.550000 111.842246 -121.687581 -0.000000 0.170959 0.214768 -0.113763 -126.033497 263.803871 -0.000000 0.394604 0.452753 -0.365228
2.555000 105.373760 -139.392885 -0.000000 0.165165 0.221798 -0.113703 -127.860581 310.446226 -0.000000 0.398627 0.445249 -0.365484
2.560000 97.099091 -150.771862 -0.000000 0.159827 0.228996 -0.113764 -129.026460 361.293795 -0.000000 0.402430 0.437359 -0.366565
2.565000 87.863517 -155.869731 -0.000000 0.155014 0.236366 -0.113789 -129.025449 415.589939 -0.000000 0.405527 0.428520 -0.367019
2.570000 79.085506 -155.246781 -0.000000 0.150538 0.243873 -0.113862 -128.379287 472.162425 -0.000000 0.408403 0.420044 -0.367339
2.575000 71.546487 -150.385142 -0.000000 0.146507 0.251654 -0.113852 -126.249287 530.295511 -0.000000 0.410979 0.411227 -0.367504
2.580000 65.921122 -142.957729 -0.000000 0.142717 0.259950 -0.113930 -122.260197 589.158793 -0.000000 0.413338 0.402357 -0.367673
2.585000 62.575944 -134.558563 -0.000000 0.139288 0.268519 -0.113906 -116.613843 647.832530 -0.000000 0.415482 0.393339 -0.367755
2.590000 61.037953 -126.635190 -0.000000 0.136373 0.277411 -0.113720 -107.743799 705.696566 -0.000000 0.417387 0.383483 -0.367711
2.595000 61.132644 -119.815772 -0.000000 0.133854 0.286657 -0.113704 -97.493383 761.564253 -0.000000 0.418990 0.373867 -0.367535
2.600000 62.198311 -114.328042 -0.000000 0.131915 0.295816 -0.113674 -86.802418 814.655186 -0.000000 0.420202 0.364257 -0.367325
2.605000 63.251016 -110.172067 -0.000000 0.130549 0.305294 -0.113468 -74.440338 864.704222 -0.000000 0.421209 0.354508 -0.367061
2.610000 63.870715 -106.898679 -0.000000 0.129713 0.314672 -0.113550 -62.333062 911.477439 -0.000000 0.421693 0.344694 -0.366922
2.615000 63.639214 -104.136211 -0.000000 0.129445 0.323932 -0.113505 -51.045026 955.295242 -0.000000 0.421728 0.334792 -0.366743
2.620000 62.479666 -101.565222 -0.000000 0.129797 0.333004 -0.113418 -42.028619 996.754193 -0.000000 0.421439 0.324988 -0.366457
2.625000 60.237721 -99.209738 -0.000000 0.130649 0.342310 -0.113382 -34.085175 1036.783869 -0.000000 0.420798 0.315180 -0.365813
2.630000 57.100473 -97.084606 -0.000000 0.131858 0.351575 -0.113325 -28.250847 1076.268115 -0.000000 0.419824 0.305308 -0.366396
2.635000 53.082546 -95.356119 -0.000000 0.133723 0.361003 -0.113401 -23.522902 1116.068425 -0.000000 0.418529 0.295370 -0.365617
2.640000 48.406386 -94.013986 -0.000000 0.136137 0.370210 -0.113447 -21.365632 1156.805925 -0.000000 0.416657 0.285562 -0.365469
2.645000 43.131753 -93.080102 -0.000000 0.139045 0.379127 -0.113643 -21.517993 1198.982259 -0.000000 0.414244 0.275927 -0.365406
2.650000 37.141561 -92.622694 -0.000000 0.142662 0.388194 -0.113833 -21.118757 1243.029534 -0.000000 0.411362 0.266425 -0.365350
2.655000 30.570684 -92.577410 -0.000000 0.146600 0.397285 -0.113935 -20.143550 1289.211374 -0.000000 0.408040 0.256998 -0.365270
2.660000 23.600812 -92.881496 -0.000000 0.150986 0.406092 -0.114131 -19.144403 1337.559835 -0.000000 0.404240 0.247807 -0.365219
2.665000 16.257705 -93.520768 -0.000000 0.155804 0.414721 -0.114307 -16.445849 1387.759662 -0.000000 0.400026 0.238775 -0.365109
2.670000 8.708379 -94.426962 -0.000000 0.161076 0.423108 -0.114458 -12.629335 1438.987301 -0.000000 0.395338 0.230399 -0.365071
2.675000 0.773316 -95.550719 -0.000000 0.166911 0.431249 -0.114513 -3.477053 1490.019288 -0.000000 0.390270 0.221930 -0.364980
2.680000 -7.424643 -96.812131 -0.000000 0.172971 0.439054 -0.114691 10.238073 1539.256803 -0.000000 0.384716 0.213581 -0.364893
2.685000 -15.809914 -98.209376 -0.000000 0.179512 0.446398 -0.114685 27.707793 1584.979376 -0.000000 0.378814 0.205795 -0.364885
2.690000 -24.455683 -99.774041 -0.000000 0.186543 0.453355 -0.114788 49.304784 1625.464711 -0.000000 0.372526 0.198825 -0.364840
